<svg xmlns="http://www.w3.org/2000/svg" width="1088" height="540">
    <rect width="1088" height="540" fill="#000"/>
    <g stroke="#000" stroke-width="4">

<polygon points="0 0 0 20 17 30 34 20 34 0 17 -10" fill="#222"/>
<polygon points="34 0 34 20 51 30 68 20 68 0 51 -10" fill="#333"/>
<polygon points="68 0 68 20 85 30 102 20 102 0 85 -10" fill="#000"/>
<polygon points="102 0 102 20 119 30 136 20 136 0 119 -10" fill="#111"/>
<polygon points="136 0 136 20 153 30 170 20 170 0 153 -10" fill="#000"/>
<polygon points="170 0 170 20 187 30 204 20 204 0 187 -10" fill="#222"/>
<polygon points="204 0 204 20 221 30 238 20 238 0 221 -10" fill="#000"/>
<polygon points="238 0 238 20 255 30 272 20 272 0 255 -10" fill="#222"/>
<polygon points="272 0 272 20 289 30 306 20 306 0 289 -10" fill="#333"/>
<polygon points="306 0 306 20 323 30 340 20 340 0 323 -10" fill="#000"/>
<polygon points="340 0 340 20 357 30 374 20 374 0 357 -10" fill="#222"/>
<polygon points="374 0 374 20 391 30 408 20 408 0 391 -10" fill="#000"/>
<polygon points="408 0 408 20 425 30 442 20 442 0 425 -10" fill="#222"/>
<polygon points="442 0 442 20 459 30 476 20 476 0 459 -10" fill="#333"/>
<polygon points="476 0 476 20 493 30 510 20 510 0 493 -10" fill="#333"/>
<polygon points="510 0 510 20 527 30 544 20 544 0 527 -10" fill="#000"/>
<polygon points="544 0 544 20 561 30 578 20 578 0 561 -10" fill="#222"/>
<polygon points="578 0 578 20 595 30 612 20 612 0 595 -10" fill="#111"/>
<polygon points="612 0 612 20 629 30 646 20 646 0 629 -10" fill="#000"/>
<polygon points="646 0 646 20 663 30 680 20 680 0 663 -10" fill="#222"/>
<polygon points="680 0 680 20 697 30 714 20 714 0 697 -10" fill="#222"/>
<polygon points="714 0 714 20 731 30 748 20 748 0 731 -10" fill="#000"/>
<polygon points="748 0 748 20 765 30 782 20 782 0 765 -10" fill="#333"/>
<polygon points="782 0 782 20 799 30 816 20 816 0 799 -10" fill="#333"/>
<polygon points="816 0 816 20 833 30 850 20 850 0 833 -10" fill="#111"/>
<polygon points="850 0 850 20 867 30 884 20 884 0 867 -10" fill="#222"/>
<polygon points="884 0 884 20 901 30 918 20 918 0 901 -10" fill="#333"/>
<polygon points="918 0 918 20 935 30 952 20 952 0 935 -10" fill="#000"/>
<polygon points="952 0 952 20 969 30 986 20 986 0 969 -10" fill="#333"/>
<polygon points="986 0 986 20 1003 30 1020 20 1020 0 1003 -10" fill="#222"/>
<polygon points="1020 0 1020 20 1037 30 1054 20 1054 0 1037 -10" fill="#222"/>
<polygon points="1054 0 1054 20 1071 30 1088 20 1088 0 1071 -10" fill="#111"/>

<polygon points="-17 30 -17 50 0 60 17 50 17 30 0 20" fill="#000"/>
<polygon points="17 30 17 50 34 60 51 50 51 30 34 20" fill="#222"/>
<polygon points="51 30 51 50 68 60 85 50 85 30 68 20" fill="#000"/>
<polygon points="85 30 85 50 102 60 119 50 119 30 102 20" fill="#111"/>
<polygon points="119 30 119 50 136 60 153 50 153 30 136 20" fill="#333"/>
<polygon points="153 30 153 50 170 60 187 50 187 30 170 20" fill="#000"/>
<polygon points="187 30 187 50 204 60 221 50 221 30 204 20" fill="#222"/>
<polygon points="221 30 221 50 238 60 255 50 255 30 238 20" fill="#111"/>
<polygon points="255 30 255 50 272 60 289 50 289 30 272 20" fill="#111"/>
<polygon points="289 30 289 50 306 60 323 50 323 30 306 20" fill="#333"/>
<polygon points="323 30 323 50 340 60 357 50 357 30 340 20" fill="#222"/>
<polygon points="357 30 357 50 374 60 391 50 391 30 374 20" fill="#222"/>
<polygon points="391 30 391 50 408 60 425 50 425 30 408 20" fill="#000"/>
<polygon points="425 30 425 50 442 60 459 50 459 30 442 20" fill="#333"/>
<polygon points="459 30 459 50 476 60 493 50 493 30 476 20" fill="#222"/>
<polygon points="493 30 493 50 510 60 527 50 527 30 510 20" fill="#222"/>
<polygon points="527 30 527 50 544 60 561 50 561 30 544 20" fill="#000"/>
<polygon points="561 30 561 50 578 60 595 50 595 30 578 20" fill="#333"/>
<polygon points="595 30 595 50 612 60 629 50 629 30 612 20" fill="#333"/>
<polygon points="629 30 629 50 646 60 663 50 663 30 646 20" fill="#111"/>
<polygon points="663 30 663 50 680 60 697 50 697 30 680 20" fill="#222"/>
<polygon points="697 30 697 50 714 60 731 50 731 30 714 20" fill="#111"/>
<polygon points="731 30 731 50 748 60 765 50 765 30 748 20" fill="#000"/>
<polygon points="765 30 765 50 782 60 799 50 799 30 782 20" fill="#000"/>
<polygon points="799 30 799 50 816 60 833 50 833 30 816 20" fill="#333"/>
<polygon points="833 30 833 50 850 60 867 50 867 30 850 20" fill="#333"/>
<polygon points="867 30 867 50 884 60 901 50 901 30 884 20" fill="#222"/>
<polygon points="901 30 901 50 918 60 935 50 935 30 918 20" fill="#000"/>
<polygon points="935 30 935 50 952 60 969 50 969 30 952 20" fill="#000"/>
<polygon points="969 30 969 50 986 60 1003 50 1003 30 986 20" fill="#333"/>
<polygon points="1003 30 1003 50 1020 60 1037 50 1037 30 1020 20" fill="#111"/>
<polygon points="1037 30 1037 50 1054 60 1071 50 1071 30 1054 20" fill="#333"/>
<polygon points="1071 30 1071 50 1088 60 1105 50 1105 30 1088 20" fill="#000"/>

<polygon points="0 60 0 80 17 90 34 80 34 60 17 50" fill="#111"/>
<polygon points="34 60 34 80 51 90 68 80 68 60 51 50" fill="#333"/>
<polygon points="68 60 68 80 85 90 102 80 102 60 85 50" fill="#222"/>
<polygon points="102 60 102 80 119 90 136 80 136 60 119 50" fill="#111"/>
<polygon points="136 60 136 80 153 90 170 80 170 60 153 50" fill="#000"/>
<polygon points="170 60 170 80 187 90 204 80 204 60 187 50" fill="#000"/>
<polygon points="204 60 204 80 221 90 238 80 238 60 221 50" fill="#333"/>
<polygon points="238 60 238 80 255 90 272 80 272 60 255 50" fill="#000"/>
<polygon points="272 60 272 80 289 90 306 80 306 60 289 50" fill="#222"/>
<polygon points="306 60 306 80 323 90 340 80 340 60 323 50" fill="#111"/>
<polygon points="340 60 340 80 357 90 374 80 374 60 357 50" fill="#222"/>
<polygon points="374 60 374 80 391 90 408 80 408 60 391 50" fill="#222"/>
<polygon points="408 60 408 80 425 90 442 80 442 60 425 50" fill="#333"/>
<polygon points="442 60 442 80 459 90 476 80 476 60 459 50" fill="#000"/>
<polygon points="476 60 476 80 493 90 510 80 510 60 493 50" fill="#222"/>
<polygon points="510 60 510 80 527 90 544 80 544 60 527 50" fill="#111"/>
<polygon points="544 60 544 80 561 90 578 80 578 60 561 50" fill="#222"/>
<polygon points="578 60 578 80 595 90 612 80 612 60 595 50" fill="#333"/>
<polygon points="612 60 612 80 629 90 646 80 646 60 629 50" fill="#222"/>
<polygon points="646 60 646 80 663 90 680 80 680 60 663 50" fill="#000"/>
<polygon points="680 60 680 80 697 90 714 80 714 60 697 50" fill="#333"/>
<polygon points="714 60 714 80 731 90 748 80 748 60 731 50" fill="#333"/>
<polygon points="748 60 748 80 765 90 782 80 782 60 765 50" fill="#111"/>
<polygon points="782 60 782 80 799 90 816 80 816 60 799 50" fill="#222"/>
<polygon points="816 60 816 80 833 90 850 80 850 60 833 50" fill="#111"/>
<polygon points="850 60 850 80 867 90 884 80 884 60 867 50" fill="#222"/>
<polygon points="884 60 884 80 901 90 918 80 918 60 901 50" fill="#222"/>
<polygon points="918 60 918 80 935 90 952 80 952 60 935 50" fill="#222"/>
<polygon points="952 60 952 80 969 90 986 80 986 60 969 50" fill="#111"/>
<polygon points="986 60 986 80 1003 90 1020 80 1020 60 1003 50" fill="#222"/>
<polygon points="1020 60 1020 80 1037 90 1054 80 1054 60 1037 50" fill="#000"/>
<polygon points="1054 60 1054 80 1071 90 1088 80 1088 60 1071 50" fill="#333"/>

<polygon points="-17 90 -17 110 0 120 17 110 17 90 0 80" fill="#222"/>
<polygon points="17 90 17 110 34 120 51 110 51 90 34 80" fill="#333"/>
<polygon points="51 90 51 110 68 120 85 110 85 90 68 80" fill="#000"/>
<polygon points="85 90 85 110 102 120 119 110 119 90 102 80" fill="#222"/>
<polygon points="119 90 119 110 136 120 153 110 153 90 136 80" fill="#333"/>
<polygon points="153 90 153 110 170 120 187 110 187 90 170 80" fill="#333"/>
<polygon points="187 90 187 110 204 120 221 110 221 90 204 80" fill="#222"/>
<polygon points="221 90 221 110 238 120 255 110 255 90 238 80" fill="#333"/>
<polygon points="255 90 255 110 272 120 289 110 289 90 272 80" fill="#111"/>
<polygon points="289 90 289 110 306 120 323 110 323 90 306 80" fill="#000"/>
<polygon points="323 90 323 110 340 120 357 110 357 90 340 80" fill="#000"/>
<polygon points="357 90 357 110 374 120 391 110 391 90 374 80" fill="#333"/>
<polygon points="391 90 391 110 408 120 425 110 425 90 408 80" fill="#333"/>
<polygon points="425 90 425 110 442 120 459 110 459 90 442 80" fill="#333"/>
<polygon points="459 90 459 110 476 120 493 110 493 90 476 80" fill="#333"/>
<polygon points="493 90 493 110 510 120 527 110 527 90 510 80" fill="#111"/>
<polygon points="527 90 527 110 544 120 561 110 561 90 544 80" fill="#222"/>
<polygon points="561 90 561 110 578 120 595 110 595 90 578 80" fill="#111"/>
<polygon points="595 90 595 110 612 120 629 110 629 90 612 80" fill="#111"/>
<polygon points="629 90 629 110 646 120 663 110 663 90 646 80" fill="#111"/>
<polygon points="663 90 663 110 680 120 697 110 697 90 680 80" fill="#222"/>
<polygon points="697 90 697 110 714 120 731 110 731 90 714 80" fill="#222"/>
<polygon points="731 90 731 110 748 120 765 110 765 90 748 80" fill="#111"/>
<polygon points="765 90 765 110 782 120 799 110 799 90 782 80" fill="#000"/>
<polygon points="799 90 799 110 816 120 833 110 833 90 816 80" fill="#000"/>
<polygon points="833 90 833 110 850 120 867 110 867 90 850 80" fill="#111"/>
<polygon points="867 90 867 110 884 120 901 110 901 90 884 80" fill="#222"/>
<polygon points="901 90 901 110 918 120 935 110 935 90 918 80" fill="#333"/>
<polygon points="935 90 935 110 952 120 969 110 969 90 952 80" fill="#000"/>
<polygon points="969 90 969 110 986 120 1003 110 1003 90 986 80" fill="#333"/>
<polygon points="1003 90 1003 110 1020 120 1037 110 1037 90 1020 80" fill="#333"/>
<polygon points="1037 90 1037 110 1054 120 1071 110 1071 90 1054 80" fill="#333"/>
<polygon points="1071 90 1071 110 1088 120 1105 110 1105 90 1088 80" fill="#222"/>

<polygon points="0 120 0 140 17 150 34 140 34 120 17 110" fill="#333"/>
<polygon points="34 120 34 140 51 150 68 140 68 120 51 110" fill="#333"/>
<polygon points="68 120 68 140 85 150 102 140 102 120 85 110" fill="#222"/>
<polygon points="102 120 102 140 119 150 136 140 136 120 119 110" fill="#111"/>
<polygon points="136 120 136 140 153 150 170 140 170 120 153 110" fill="#333"/>
<polygon points="170 120 170 140 187 150 204 140 204 120 187 110" fill="#333"/>
<polygon points="204 120 204 140 221 150 238 140 238 120 221 110" fill="#000"/>
<polygon points="238 120 238 140 255 150 272 140 272 120 255 110" fill="#111"/>
<polygon points="272 120 272 140 289 150 306 140 306 120 289 110" fill="#111"/>
<polygon points="306 120 306 140 323 150 340 140 340 120 323 110" fill="#111"/>
<polygon points="340 120 340 140 357 150 374 140 374 120 357 110" fill="#333"/>
<polygon points="374 120 374 140 391 150 408 140 408 120 391 110" fill="#333"/>
<polygon points="408 120 408 140 425 150 442 140 442 120 425 110" fill="#000"/>
<polygon points="442 120 442 140 459 150 476 140 476 120 459 110" fill="#000"/>
<polygon points="476 120 476 140 493 150 510 140 510 120 493 110" fill="#111"/>
<polygon points="510 120 510 140 527 150 544 140 544 120 527 110" fill="#333"/>
<polygon points="544 120 544 140 561 150 578 140 578 120 561 110" fill="#111"/>
<polygon points="578 120 578 140 595 150 612 140 612 120 595 110" fill="#111"/>
<polygon points="612 120 612 140 629 150 646 140 646 120 629 110" fill="#111"/>
<polygon points="646 120 646 140 663 150 680 140 680 120 663 110" fill="#111"/>
<polygon points="680 120 680 140 697 150 714 140 714 120 697 110" fill="#111"/>
<polygon points="714 120 714 140 731 150 748 140 748 120 731 110" fill="#222"/>
<polygon points="748 120 748 140 765 150 782 140 782 120 765 110" fill="#333"/>
<polygon points="782 120 782 140 799 150 816 140 816 120 799 110" fill="#111"/>
<polygon points="816 120 816 140 833 150 850 140 850 120 833 110" fill="#333"/>
<polygon points="850 120 850 140 867 150 884 140 884 120 867 110" fill="#333"/>
<polygon points="884 120 884 140 901 150 918 140 918 120 901 110" fill="#222"/>
<polygon points="918 120 918 140 935 150 952 140 952 120 935 110" fill="#000"/>
<polygon points="952 120 952 140 969 150 986 140 986 120 969 110" fill="#111"/>
<polygon points="986 120 986 140 1003 150 1020 140 1020 120 1003 110" fill="#111"/>
<polygon points="1020 120 1020 140 1037 150 1054 140 1054 120 1037 110" fill="#333"/>
<polygon points="1054 120 1054 140 1071 150 1088 140 1088 120 1071 110" fill="#111"/>

<polygon points="-17 150 -17 170 0 180 17 170 17 150 0 140" fill="#333"/>
<polygon points="17 150 17 170 34 180 51 170 51 150 34 140" fill="#222"/>
<polygon points="51 150 51 170 68 180 85 170 85 150 68 140" fill="#222"/>
<polygon points="85 150 85 170 102 180 119 170 119 150 102 140" fill="#333"/>
<polygon points="119 150 119 170 136 180 153 170 153 150 136 140" fill="#222"/>
<polygon points="153 150 153 170 170 180 187 170 187 150 170 140" fill="#333"/>
<polygon points="187 150 187 170 204 180 221 170 221 150 204 140" fill="#000"/>
<polygon points="221 150 221 170 238 180 255 170 255 150 238 140" fill="#000"/>
<polygon points="255 150 255 170 272 180 289 170 289 150 272 140" fill="#111"/>
<polygon points="289 150 289 170 306 180 323 170 323 150 306 140" fill="#000"/>
<polygon points="323 150 323 170 340 180 357 170 357 150 340 140" fill="#000"/>
<polygon points="357 150 357 170 374 180 391 170 391 150 374 140" fill="#111"/>
<polygon points="391 150 391 170 408 180 425 170 425 150 408 140" fill="#000"/>
<polygon points="425 150 425 170 442 180 459 170 459 150 442 140" fill="#000"/>
<polygon points="459 150 459 170 476 180 493 170 493 150 476 140" fill="#111"/>
<polygon points="493 150 493 170 510 180 527 170 527 150 510 140" fill="#000"/>
<polygon points="527 150 527 170 544 180 561 170 561 150 544 140" fill="#000"/>
<polygon points="561 150 561 170 578 180 595 170 595 150 578 140" fill="#000"/>
<polygon points="595 150 595 170 612 180 629 170 629 150 612 140" fill="#333"/>
<polygon points="629 150 629 170 646 180 663 170 663 150 646 140" fill="#333"/>
<polygon points="663 150 663 170 680 180 697 170 697 150 680 140" fill="#222"/>
<polygon points="697 150 697 170 714 180 731 170 731 150 714 140" fill="#333"/>
<polygon points="731 150 731 170 748 180 765 170 765 150 748 140" fill="#000"/>
<polygon points="765 150 765 170 782 180 799 170 799 150 782 140" fill="#333"/>
<polygon points="799 150 799 170 816 180 833 170 833 150 816 140" fill="#111"/>
<polygon points="833 150 833 170 850 180 867 170 867 150 850 140" fill="#333"/>
<polygon points="867 150 867 170 884 180 901 170 901 150 884 140" fill="#222"/>
<polygon points="901 150 901 170 918 180 935 170 935 150 918 140" fill="#222"/>
<polygon points="935 150 935 170 952 180 969 170 969 150 952 140" fill="#000"/>
<polygon points="969 150 969 170 986 180 1003 170 1003 150 986 140" fill="#222"/>
<polygon points="1003 150 1003 170 1020 180 1037 170 1037 150 1020 140" fill="#111"/>
<polygon points="1037 150 1037 170 1054 180 1071 170 1071 150 1054 140" fill="#000"/>
<polygon points="1071 150 1071 170 1088 180 1105 170 1105 150 1088 140" fill="#333"/>

<polygon points="0 180 0 200 17 210 34 200 34 180 17 170" fill="#000"/>
<polygon points="34 180 34 200 51 210 68 200 68 180 51 170" fill="#333"/>
<polygon points="68 180 68 200 85 210 102 200 102 180 85 170" fill="#000"/>
<polygon points="102 180 102 200 119 210 136 200 136 180 119 170" fill="#111"/>
<polygon points="136 180 136 200 153 210 170 200 170 180 153 170" fill="#000"/>
<polygon points="170 180 170 200 187 210 204 200 204 180 187 170" fill="#333"/>
<polygon points="204 180 204 200 221 210 238 200 238 180 221 170" fill="#111"/>
<polygon points="238 180 238 200 255 210 272 200 272 180 255 170" fill="#111"/>
<polygon points="272 180 272 200 289 210 306 200 306 180 289 170" fill="#333"/>
<polygon points="306 180 306 200 323 210 340 200 340 180 323 170" fill="#222"/>
<polygon points="340 180 340 200 357 210 374 200 374 180 357 170" fill="#000"/>
<polygon points="374 180 374 200 391 210 408 200 408 180 391 170" fill="#333"/>
<polygon points="408 180 408 200 425 210 442 200 442 180 425 170" fill="#111"/>
<polygon points="442 180 442 200 459 210 476 200 476 180 459 170" fill="#111"/>
<polygon points="476 180 476 200 493 210 510 200 510 180 493 170" fill="#000"/>
<polygon points="510 180 510 200 527 210 544 200 544 180 527 170" fill="#333"/>
<polygon points="544 180 544 200 561 210 578 200 578 180 561 170" fill="#000"/>
<polygon points="578 180 578 200 595 210 612 200 612 180 595 170" fill="#333"/>
<polygon points="612 180 612 200 629 210 646 200 646 180 629 170" fill="#222"/>
<polygon points="646 180 646 200 663 210 680 200 680 180 663 170" fill="#000"/>
<polygon points="680 180 680 200 697 210 714 200 714 180 697 170" fill="#222"/>
<polygon points="714 180 714 200 731 210 748 200 748 180 731 170" fill="#333"/>
<polygon points="748 180 748 200 765 210 782 200 782 180 765 170" fill="#333"/>
<polygon points="782 180 782 200 799 210 816 200 816 180 799 170" fill="#333"/>
<polygon points="816 180 816 200 833 210 850 200 850 180 833 170" fill="#111"/>
<polygon points="850 180 850 200 867 210 884 200 884 180 867 170" fill="#000"/>
<polygon points="884 180 884 200 901 210 918 200 918 180 901 170" fill="#222"/>
<polygon points="918 180 918 200 935 210 952 200 952 180 935 170" fill="#222"/>
<polygon points="952 180 952 200 969 210 986 200 986 180 969 170" fill="#111"/>
<polygon points="986 180 986 200 1003 210 1020 200 1020 180 1003 170" fill="#222"/>
<polygon points="1020 180 1020 200 1037 210 1054 200 1054 180 1037 170" fill="#111"/>
<polygon points="1054 180 1054 200 1071 210 1088 200 1088 180 1071 170" fill="#333"/>

<polygon points="-17 210 -17 230 0 240 17 230 17 210 0 200" fill="#222"/>
<polygon points="17 210 17 230 34 240 51 230 51 210 34 200" fill="#000"/>
<polygon points="51 210 51 230 68 240 85 230 85 210 68 200" fill="#111"/>
<polygon points="85 210 85 230 102 240 119 230 119 210 102 200" fill="#333"/>
<polygon points="119 210 119 230 136 240 153 230 153 210 136 200" fill="#111"/>
<polygon points="153 210 153 230 170 240 187 230 187 210 170 200" fill="#000"/>
<polygon points="187 210 187 230 204 240 221 230 221 210 204 200" fill="#222"/>
<polygon points="221 210 221 230 238 240 255 230 255 210 238 200" fill="#000"/>
<polygon points="255 210 255 230 272 240 289 230 289 210 272 200" fill="#222"/>
<polygon points="289 210 289 230 306 240 323 230 323 210 306 200" fill="#000"/>
<polygon points="323 210 323 230 340 240 357 230 357 210 340 200" fill="#333"/>
<polygon points="357 210 357 230 374 240 391 230 391 210 374 200" fill="#222"/>
<polygon points="391 210 391 230 408 240 425 230 425 210 408 200" fill="#333"/>
<polygon points="425 210 425 230 442 240 459 230 459 210 442 200" fill="#111"/>
<polygon points="459 210 459 230 476 240 493 230 493 210 476 200" fill="#000"/>
<polygon points="493 210 493 230 510 240 527 230 527 210 510 200" fill="#222"/>
<polygon points="527 210 527 230 544 240 561 230 561 210 544 200" fill="#111"/>
<polygon points="561 210 561 230 578 240 595 230 595 210 578 200" fill="#000"/>
<polygon points="595 210 595 230 612 240 629 230 629 210 612 200" fill="#333"/>
<polygon points="629 210 629 230 646 240 663 230 663 210 646 200" fill="#111"/>
<polygon points="663 210 663 230 680 240 697 230 697 210 680 200" fill="#000"/>
<polygon points="697 210 697 230 714 240 731 230 731 210 714 200" fill="#111"/>
<polygon points="731 210 731 230 748 240 765 230 765 210 748 200" fill="#333"/>
<polygon points="765 210 765 230 782 240 799 230 799 210 782 200" fill="#333"/>
<polygon points="799 210 799 230 816 240 833 230 833 210 816 200" fill="#000"/>
<polygon points="833 210 833 230 850 240 867 230 867 210 850 200" fill="#000"/>
<polygon points="867 210 867 230 884 240 901 230 901 210 884 200" fill="#000"/>
<polygon points="901 210 901 230 918 240 935 230 935 210 918 200" fill="#333"/>
<polygon points="935 210 935 230 952 240 969 230 969 210 952 200" fill="#222"/>
<polygon points="969 210 969 230 986 240 1003 230 1003 210 986 200" fill="#222"/>
<polygon points="1003 210 1003 230 1020 240 1037 230 1037 210 1020 200" fill="#222"/>
<polygon points="1037 210 1037 230 1054 240 1071 230 1071 210 1054 200" fill="#111"/>
<polygon points="1071 210 1071 230 1088 240 1105 230 1105 210 1088 200" fill="#222"/>

<polygon points="0 240 0 260 17 270 34 260 34 240 17 230" fill="#222"/>
<polygon points="34 240 34 260 51 270 68 260 68 240 51 230" fill="#222"/>
<polygon points="68 240 68 260 85 270 102 260 102 240 85 230" fill="#000"/>
<polygon points="102 240 102 260 119 270 136 260 136 240 119 230" fill="#222"/>
<polygon points="136 240 136 260 153 270 170 260 170 240 153 230" fill="#000"/>
<polygon points="170 240 170 260 187 270 204 260 204 240 187 230" fill="#111"/>
<polygon points="204 240 204 260 221 270 238 260 238 240 221 230" fill="#333"/>
<polygon points="238 240 238 260 255 270 272 260 272 240 255 230" fill="#111"/>
<polygon points="272 240 272 260 289 270 306 260 306 240 289 230" fill="#111"/>
<polygon points="306 240 306 260 323 270 340 260 340 240 323 230" fill="#222"/>
<polygon points="340 240 340 260 357 270 374 260 374 240 357 230" fill="#222"/>
<polygon points="374 240 374 260 391 270 408 260 408 240 391 230" fill="#111"/>
<polygon points="408 240 408 260 425 270 442 260 442 240 425 230" fill="#111"/>
<polygon points="442 240 442 260 459 270 476 260 476 240 459 230" fill="#333"/>
<polygon points="476 240 476 260 493 270 510 260 510 240 493 230" fill="#000"/>
<polygon points="510 240 510 260 527 270 544 260 544 240 527 230" fill="#111"/>
<polygon points="544 240 544 260 561 270 578 260 578 240 561 230" fill="#333"/>
<polygon points="578 240 578 260 595 270 612 260 612 240 595 230" fill="#333"/>
<polygon points="612 240 612 260 629 270 646 260 646 240 629 230" fill="#222"/>
<polygon points="646 240 646 260 663 270 680 260 680 240 663 230" fill="#222"/>
<polygon points="680 240 680 260 697 270 714 260 714 240 697 230" fill="#111"/>
<polygon points="714 240 714 260 731 270 748 260 748 240 731 230" fill="#333"/>
<polygon points="748 240 748 260 765 270 782 260 782 240 765 230" fill="#222"/>
<polygon points="782 240 782 260 799 270 816 260 816 240 799 230" fill="#111"/>
<polygon points="816 240 816 260 833 270 850 260 850 240 833 230" fill="#333"/>
<polygon points="850 240 850 260 867 270 884 260 884 240 867 230" fill="#111"/>
<polygon points="884 240 884 260 901 270 918 260 918 240 901 230" fill="#111"/>
<polygon points="918 240 918 260 935 270 952 260 952 240 935 230" fill="#111"/>
<polygon points="952 240 952 260 969 270 986 260 986 240 969 230" fill="#000"/>
<polygon points="986 240 986 260 1003 270 1020 260 1020 240 1003 230" fill="#222"/>
<polygon points="1020 240 1020 260 1037 270 1054 260 1054 240 1037 230" fill="#000"/>
<polygon points="1054 240 1054 260 1071 270 1088 260 1088 240 1071 230" fill="#111"/>

<polygon points="-17 270 -17 290 0 300 17 290 17 270 0 260" fill="#111"/>
<polygon points="17 270 17 290 34 300 51 290 51 270 34 260" fill="#111"/>
<polygon points="51 270 51 290 68 300 85 290 85 270 68 260" fill="#000"/>
<polygon points="85 270 85 290 102 300 119 290 119 270 102 260" fill="#000"/>
<polygon points="119 270 119 290 136 300 153 290 153 270 136 260" fill="#000"/>
<polygon points="153 270 153 290 170 300 187 290 187 270 170 260" fill="#111"/>
<polygon points="187 270 187 290 204 300 221 290 221 270 204 260" fill="#000"/>
<polygon points="221 270 221 290 238 300 255 290 255 270 238 260" fill="#111"/>
<polygon points="255 270 255 290 272 300 289 290 289 270 272 260" fill="#111"/>
<polygon points="289 270 289 290 306 300 323 290 323 270 306 260" fill="#222"/>
<polygon points="323 270 323 290 340 300 357 290 357 270 340 260" fill="#000"/>
<polygon points="357 270 357 290 374 300 391 290 391 270 374 260" fill="#333"/>
<polygon points="391 270 391 290 408 300 425 290 425 270 408 260" fill="#222"/>
<polygon points="425 270 425 290 442 300 459 290 459 270 442 260" fill="#111"/>
<polygon points="459 270 459 290 476 300 493 290 493 270 476 260" fill="#111"/>
<polygon points="493 270 493 290 510 300 527 290 527 270 510 260" fill="#333"/>
<polygon points="527 270 527 290 544 300 561 290 561 270 544 260" fill="#222"/>
<polygon points="561 270 561 290 578 300 595 290 595 270 578 260" fill="#000"/>
<polygon points="595 270 595 290 612 300 629 290 629 270 612 260" fill="#111"/>
<polygon points="629 270 629 290 646 300 663 290 663 270 646 260" fill="#000"/>
<polygon points="663 270 663 290 680 300 697 290 697 270 680 260" fill="#111"/>
<polygon points="697 270 697 290 714 300 731 290 731 270 714 260" fill="#222"/>
<polygon points="731 270 731 290 748 300 765 290 765 270 748 260" fill="#111"/>
<polygon points="765 270 765 290 782 300 799 290 799 270 782 260" fill="#000"/>
<polygon points="799 270 799 290 816 300 833 290 833 270 816 260" fill="#222"/>
<polygon points="833 270 833 290 850 300 867 290 867 270 850 260" fill="#000"/>
<polygon points="867 270 867 290 884 300 901 290 901 270 884 260" fill="#000"/>
<polygon points="901 270 901 290 918 300 935 290 935 270 918 260" fill="#000"/>
<polygon points="935 270 935 290 952 300 969 290 969 270 952 260" fill="#333"/>
<polygon points="969 270 969 290 986 300 1003 290 1003 270 986 260" fill="#333"/>
<polygon points="1003 270 1003 290 1020 300 1037 290 1037 270 1020 260" fill="#000"/>
<polygon points="1037 270 1037 290 1054 300 1071 290 1071 270 1054 260" fill="#333"/>
<polygon points="1071 270 1071 290 1088 300 1105 290 1105 270 1088 260" fill="#111"/>

<polygon points="0 300 0 320 17 330 34 320 34 300 17 290" fill="#222"/>
<polygon points="34 300 34 320 51 330 68 320 68 300 51 290" fill="#000"/>
<polygon points="68 300 68 320 85 330 102 320 102 300 85 290" fill="#000"/>
<polygon points="102 300 102 320 119 330 136 320 136 300 119 290" fill="#333"/>
<polygon points="136 300 136 320 153 330 170 320 170 300 153 290" fill="#333"/>
<polygon points="170 300 170 320 187 330 204 320 204 300 187 290" fill="#000"/>
<polygon points="204 300 204 320 221 330 238 320 238 300 221 290" fill="#111"/>
<polygon points="238 300 238 320 255 330 272 320 272 300 255 290" fill="#000"/>
<polygon points="272 300 272 320 289 330 306 320 306 300 289 290" fill="#333"/>
<polygon points="306 300 306 320 323 330 340 320 340 300 323 290" fill="#111"/>
<polygon points="340 300 340 320 357 330 374 320 374 300 357 290" fill="#111"/>
<polygon points="374 300 374 320 391 330 408 320 408 300 391 290" fill="#000"/>
<polygon points="408 300 408 320 425 330 442 320 442 300 425 290" fill="#111"/>
<polygon points="442 300 442 320 459 330 476 320 476 300 459 290" fill="#222"/>
<polygon points="476 300 476 320 493 330 510 320 510 300 493 290" fill="#222"/>
<polygon points="510 300 510 320 527 330 544 320 544 300 527 290" fill="#222"/>
<polygon points="544 300 544 320 561 330 578 320 578 300 561 290" fill="#222"/>
<polygon points="578 300 578 320 595 330 612 320 612 300 595 290" fill="#222"/>
<polygon points="612 300 612 320 629 330 646 320 646 300 629 290" fill="#111"/>
<polygon points="646 300 646 320 663 330 680 320 680 300 663 290" fill="#000"/>
<polygon points="680 300 680 320 697 330 714 320 714 300 697 290" fill="#111"/>
<polygon points="714 300 714 320 731 330 748 320 748 300 731 290" fill="#111"/>
<polygon points="748 300 748 320 765 330 782 320 782 300 765 290" fill="#333"/>
<polygon points="782 300 782 320 799 330 816 320 816 300 799 290" fill="#222"/>
<polygon points="816 300 816 320 833 330 850 320 850 300 833 290" fill="#000"/>
<polygon points="850 300 850 320 867 330 884 320 884 300 867 290" fill="#111"/>
<polygon points="884 300 884 320 901 330 918 320 918 300 901 290" fill="#222"/>
<polygon points="918 300 918 320 935 330 952 320 952 300 935 290" fill="#222"/>
<polygon points="952 300 952 320 969 330 986 320 986 300 969 290" fill="#222"/>
<polygon points="986 300 986 320 1003 330 1020 320 1020 300 1003 290" fill="#000"/>
<polygon points="1020 300 1020 320 1037 330 1054 320 1054 300 1037 290" fill="#333"/>
<polygon points="1054 300 1054 320 1071 330 1088 320 1088 300 1071 290" fill="#222"/>

<polygon points="-17 330 -17 350 0 360 17 350 17 330 0 320" fill="#222"/>
<polygon points="17 330 17 350 34 360 51 350 51 330 34 320" fill="#000"/>
<polygon points="51 330 51 350 68 360 85 350 85 330 68 320" fill="#111"/>
<polygon points="85 330 85 350 102 360 119 350 119 330 102 320" fill="#000"/>
<polygon points="119 330 119 350 136 360 153 350 153 330 136 320" fill="#000"/>
<polygon points="153 330 153 350 170 360 187 350 187 330 170 320" fill="#333"/>
<polygon points="187 330 187 350 204 360 221 350 221 330 204 320" fill="#333"/>
<polygon points="221 330 221 350 238 360 255 350 255 330 238 320" fill="#222"/>
<polygon points="255 330 255 350 272 360 289 350 289 330 272 320" fill="#111"/>
<polygon points="289 330 289 350 306 360 323 350 323 330 306 320" fill="#333"/>
<polygon points="323 330 323 350 340 360 357 350 357 330 340 320" fill="#222"/>
<polygon points="357 330 357 350 374 360 391 350 391 330 374 320" fill="#000"/>
<polygon points="391 330 391 350 408 360 425 350 425 330 408 320" fill="#000"/>
<polygon points="425 330 425 350 442 360 459 350 459 330 442 320" fill="#333"/>
<polygon points="459 330 459 350 476 360 493 350 493 330 476 320" fill="#333"/>
<polygon points="493 330 493 350 510 360 527 350 527 330 510 320" fill="#333"/>
<polygon points="527 330 527 350 544 360 561 350 561 330 544 320" fill="#333"/>
<polygon points="561 330 561 350 578 360 595 350 595 330 578 320" fill="#222"/>
<polygon points="595 330 595 350 612 360 629 350 629 330 612 320" fill="#111"/>
<polygon points="629 330 629 350 646 360 663 350 663 330 646 320" fill="#000"/>
<polygon points="663 330 663 350 680 360 697 350 697 330 680 320" fill="#000"/>
<polygon points="697 330 697 350 714 360 731 350 731 330 714 320" fill="#333"/>
<polygon points="731 330 731 350 748 360 765 350 765 330 748 320" fill="#000"/>
<polygon points="765 330 765 350 782 360 799 350 799 330 782 320" fill="#111"/>
<polygon points="799 330 799 350 816 360 833 350 833 330 816 320" fill="#222"/>
<polygon points="833 330 833 350 850 360 867 350 867 330 850 320" fill="#111"/>
<polygon points="867 330 867 350 884 360 901 350 901 330 884 320" fill="#000"/>
<polygon points="901 330 901 350 918 360 935 350 935 330 918 320" fill="#111"/>
<polygon points="935 330 935 350 952 360 969 350 969 330 952 320" fill="#333"/>
<polygon points="969 330 969 350 986 360 1003 350 1003 330 986 320" fill="#222"/>
<polygon points="1003 330 1003 350 1020 360 1037 350 1037 330 1020 320" fill="#222"/>
<polygon points="1037 330 1037 350 1054 360 1071 350 1071 330 1054 320" fill="#000"/>
<polygon points="1071 330 1071 350 1088 360 1105 350 1105 330 1088 320" fill="#222"/>

<polygon points="0 360 0 380 17 390 34 380 34 360 17 350" fill="#000"/>
<polygon points="34 360 34 380 51 390 68 380 68 360 51 350" fill="#333"/>
<polygon points="68 360 68 380 85 390 102 380 102 360 85 350" fill="#333"/>
<polygon points="102 360 102 380 119 390 136 380 136 360 119 350" fill="#222"/>
<polygon points="136 360 136 380 153 390 170 380 170 360 153 350" fill="#333"/>
<polygon points="170 360 170 380 187 390 204 380 204 360 187 350" fill="#222"/>
<polygon points="204 360 204 380 221 390 238 380 238 360 221 350" fill="#000"/>
<polygon points="238 360 238 380 255 390 272 380 272 360 255 350" fill="#000"/>
<polygon points="272 360 272 380 289 390 306 380 306 360 289 350" fill="#333"/>
<polygon points="306 360 306 380 323 390 340 380 340 360 323 350" fill="#111"/>
<polygon points="340 360 340 380 357 390 374 380 374 360 357 350" fill="#111"/>
<polygon points="374 360 374 380 391 390 408 380 408 360 391 350" fill="#000"/>
<polygon points="408 360 408 380 425 390 442 380 442 360 425 350" fill="#111"/>
<polygon points="442 360 442 380 459 390 476 380 476 360 459 350" fill="#333"/>
<polygon points="476 360 476 380 493 390 510 380 510 360 493 350" fill="#000"/>
<polygon points="510 360 510 380 527 390 544 380 544 360 527 350" fill="#000"/>
<polygon points="544 360 544 380 561 390 578 380 578 360 561 350" fill="#333"/>
<polygon points="578 360 578 380 595 390 612 380 612 360 595 350" fill="#333"/>
<polygon points="612 360 612 380 629 390 646 380 646 360 629 350" fill="#000"/>
<polygon points="646 360 646 380 663 390 680 380 680 360 663 350" fill="#222"/>
<polygon points="680 360 680 380 697 390 714 380 714 360 697 350" fill="#333"/>
<polygon points="714 360 714 380 731 390 748 380 748 360 731 350" fill="#111"/>
<polygon points="748 360 748 380 765 390 782 380 782 360 765 350" fill="#000"/>
<polygon points="782 360 782 380 799 390 816 380 816 360 799 350" fill="#222"/>
<polygon points="816 360 816 380 833 390 850 380 850 360 833 350" fill="#000"/>
<polygon points="850 360 850 380 867 390 884 380 884 360 867 350" fill="#111"/>
<polygon points="884 360 884 380 901 390 918 380 918 360 901 350" fill="#111"/>
<polygon points="918 360 918 380 935 390 952 380 952 360 935 350" fill="#222"/>
<polygon points="952 360 952 380 969 390 986 380 986 360 969 350" fill="#222"/>
<polygon points="986 360 986 380 1003 390 1020 380 1020 360 1003 350" fill="#000"/>
<polygon points="1020 360 1020 380 1037 390 1054 380 1054 360 1037 350" fill="#111"/>
<polygon points="1054 360 1054 380 1071 390 1088 380 1088 360 1071 350" fill="#333"/>

<polygon points="-17 390 -17 410 0 420 17 410 17 390 0 380" fill="#333"/>
<polygon points="17 390 17 410 34 420 51 410 51 390 34 380" fill="#000"/>
<polygon points="51 390 51 410 68 420 85 410 85 390 68 380" fill="#222"/>
<polygon points="85 390 85 410 102 420 119 410 119 390 102 380" fill="#000"/>
<polygon points="119 390 119 410 136 420 153 410 153 390 136 380" fill="#222"/>
<polygon points="153 390 153 410 170 420 187 410 187 390 170 380" fill="#111"/>
<polygon points="187 390 187 410 204 420 221 410 221 390 204 380" fill="#333"/>
<polygon points="221 390 221 410 238 420 255 410 255 390 238 380" fill="#333"/>
<polygon points="255 390 255 410 272 420 289 410 289 390 272 380" fill="#333"/>
<polygon points="289 390 289 410 306 420 323 410 323 390 306 380" fill="#333"/>
<polygon points="323 390 323 410 340 420 357 410 357 390 340 380" fill="#000"/>
<polygon points="357 390 357 410 374 420 391 410 391 390 374 380" fill="#000"/>
<polygon points="391 390 391 410 408 420 425 410 425 390 408 380" fill="#333"/>
<polygon points="425 390 425 410 442 420 459 410 459 390 442 380" fill="#222"/>
<polygon points="459 390 459 410 476 420 493 410 493 390 476 380" fill="#222"/>
<polygon points="493 390 493 410 510 420 527 410 527 390 510 380" fill="#333"/>
<polygon points="527 390 527 410 544 420 561 410 561 390 544 380" fill="#333"/>
<polygon points="561 390 561 410 578 420 595 410 595 390 578 380" fill="#111"/>
<polygon points="595 390 595 410 612 420 629 410 629 390 612 380" fill="#333"/>
<polygon points="629 390 629 410 646 420 663 410 663 390 646 380" fill="#333"/>
<polygon points="663 390 663 410 680 420 697 410 697 390 680 380" fill="#222"/>
<polygon points="697 390 697 410 714 420 731 410 731 390 714 380" fill="#000"/>
<polygon points="731 390 731 410 748 420 765 410 765 390 748 380" fill="#333"/>
<polygon points="765 390 765 410 782 420 799 410 799 390 782 380" fill="#222"/>
<polygon points="799 390 799 410 816 420 833 410 833 390 816 380" fill="#000"/>
<polygon points="833 390 833 410 850 420 867 410 867 390 850 380" fill="#222"/>
<polygon points="867 390 867 410 884 420 901 410 901 390 884 380" fill="#111"/>
<polygon points="901 390 901 410 918 420 935 410 935 390 918 380" fill="#111"/>
<polygon points="935 390 935 410 952 420 969 410 969 390 952 380" fill="#000"/>
<polygon points="969 390 969 410 986 420 1003 410 1003 390 986 380" fill="#111"/>
<polygon points="1003 390 1003 410 1020 420 1037 410 1037 390 1020 380" fill="#111"/>
<polygon points="1037 390 1037 410 1054 420 1071 410 1071 390 1054 380" fill="#333"/>
<polygon points="1071 390 1071 410 1088 420 1105 410 1105 390 1088 380" fill="#333"/>

<polygon points="0 420 0 440 17 450 34 440 34 420 17 410" fill="#333"/>
<polygon points="34 420 34 440 51 450 68 440 68 420 51 410" fill="#000"/>
<polygon points="68 420 68 440 85 450 102 440 102 420 85 410" fill="#000"/>
<polygon points="102 420 102 440 119 450 136 440 136 420 119 410" fill="#000"/>
<polygon points="136 420 136 440 153 450 170 440 170 420 153 410" fill="#333"/>
<polygon points="170 420 170 440 187 450 204 440 204 420 187 410" fill="#333"/>
<polygon points="204 420 204 440 221 450 238 440 238 420 221 410" fill="#333"/>
<polygon points="238 420 238 440 255 450 272 440 272 420 255 410" fill="#333"/>
<polygon points="272 420 272 440 289 450 306 440 306 420 289 410" fill="#222"/>
<polygon points="306 420 306 440 323 450 340 440 340 420 323 410" fill="#000"/>
<polygon points="340 420 340 440 357 450 374 440 374 420 357 410" fill="#222"/>
<polygon points="374 420 374 440 391 450 408 440 408 420 391 410" fill="#111"/>
<polygon points="408 420 408 440 425 450 442 440 442 420 425 410" fill="#222"/>
<polygon points="442 420 442 440 459 450 476 440 476 420 459 410" fill="#000"/>
<polygon points="476 420 476 440 493 450 510 440 510 420 493 410" fill="#222"/>
<polygon points="510 420 510 440 527 450 544 440 544 420 527 410" fill="#111"/>
<polygon points="544 420 544 440 561 450 578 440 578 420 561 410" fill="#333"/>
<polygon points="578 420 578 440 595 450 612 440 612 420 595 410" fill="#222"/>
<polygon points="612 420 612 440 629 450 646 440 646 420 629 410" fill="#333"/>
<polygon points="646 420 646 440 663 450 680 440 680 420 663 410" fill="#111"/>
<polygon points="680 420 680 440 697 450 714 440 714 420 697 410" fill="#000"/>
<polygon points="714 420 714 440 731 450 748 440 748 420 731 410" fill="#111"/>
<polygon points="748 420 748 440 765 450 782 440 782 420 765 410" fill="#222"/>
<polygon points="782 420 782 440 799 450 816 440 816 420 799 410" fill="#111"/>
<polygon points="816 420 816 440 833 450 850 440 850 420 833 410" fill="#222"/>
<polygon points="850 420 850 440 867 450 884 440 884 420 867 410" fill="#000"/>
<polygon points="884 420 884 440 901 450 918 440 918 420 901 410" fill="#333"/>
<polygon points="918 420 918 440 935 450 952 440 952 420 935 410" fill="#333"/>
<polygon points="952 420 952 440 969 450 986 440 986 420 969 410" fill="#222"/>
<polygon points="986 420 986 440 1003 450 1020 440 1020 420 1003 410" fill="#111"/>
<polygon points="1020 420 1020 440 1037 450 1054 440 1054 420 1037 410" fill="#000"/>
<polygon points="1054 420 1054 440 1071 450 1088 440 1088 420 1071 410" fill="#333"/>

<polygon points="-17 450 -17 470 0 480 17 470 17 450 0 440" fill="#111"/>
<polygon points="17 450 17 470 34 480 51 470 51 450 34 440" fill="#333"/>
<polygon points="51 450 51 470 68 480 85 470 85 450 68 440" fill="#111"/>
<polygon points="85 450 85 470 102 480 119 470 119 450 102 440" fill="#333"/>
<polygon points="119 450 119 470 136 480 153 470 153 450 136 440" fill="#000"/>
<polygon points="153 450 153 470 170 480 187 470 187 450 170 440" fill="#333"/>
<polygon points="187 450 187 470 204 480 221 470 221 450 204 440" fill="#333"/>
<polygon points="221 450 221 470 238 480 255 470 255 450 238 440" fill="#333"/>
<polygon points="255 450 255 470 272 480 289 470 289 450 272 440" fill="#222"/>
<polygon points="289 450 289 470 306 480 323 470 323 450 306 440" fill="#000"/>
<polygon points="323 450 323 470 340 480 357 470 357 450 340 440" fill="#333"/>
<polygon points="357 450 357 470 374 480 391 470 391 450 374 440" fill="#333"/>
<polygon points="391 450 391 470 408 480 425 470 425 450 408 440" fill="#333"/>
<polygon points="425 450 425 470 442 480 459 470 459 450 442 440" fill="#333"/>
<polygon points="459 450 459 470 476 480 493 470 493 450 476 440" fill="#333"/>
<polygon points="493 450 493 470 510 480 527 470 527 450 510 440" fill="#222"/>
<polygon points="527 450 527 470 544 480 561 470 561 450 544 440" fill="#222"/>
<polygon points="561 450 561 470 578 480 595 470 595 450 578 440" fill="#000"/>
<polygon points="595 450 595 470 612 480 629 470 629 450 612 440" fill="#222"/>
<polygon points="629 450 629 470 646 480 663 470 663 450 646 440" fill="#222"/>
<polygon points="663 450 663 470 680 480 697 470 697 450 680 440" fill="#000"/>
<polygon points="697 450 697 470 714 480 731 470 731 450 714 440" fill="#111"/>
<polygon points="731 450 731 470 748 480 765 470 765 450 748 440" fill="#333"/>
<polygon points="765 450 765 470 782 480 799 470 799 450 782 440" fill="#333"/>
<polygon points="799 450 799 470 816 480 833 470 833 450 816 440" fill="#000"/>
<polygon points="833 450 833 470 850 480 867 470 867 450 850 440" fill="#111"/>
<polygon points="867 450 867 470 884 480 901 470 901 450 884 440" fill="#333"/>
<polygon points="901 450 901 470 918 480 935 470 935 450 918 440" fill="#222"/>
<polygon points="935 450 935 470 952 480 969 470 969 450 952 440" fill="#000"/>
<polygon points="969 450 969 470 986 480 1003 470 1003 450 986 440" fill="#000"/>
<polygon points="1003 450 1003 470 1020 480 1037 470 1037 450 1020 440" fill="#111"/>
<polygon points="1037 450 1037 470 1054 480 1071 470 1071 450 1054 440" fill="#333"/>
<polygon points="1071 450 1071 470 1088 480 1105 470 1105 450 1088 440" fill="#111"/>

<polygon points="0 480 0 500 17 510 34 500 34 480 17 470" fill="#333"/>
<polygon points="34 480 34 500 51 510 68 500 68 480 51 470" fill="#222"/>
<polygon points="68 480 68 500 85 510 102 500 102 480 85 470" fill="#000"/>
<polygon points="102 480 102 500 119 510 136 500 136 480 119 470" fill="#222"/>
<polygon points="136 480 136 500 153 510 170 500 170 480 153 470" fill="#000"/>
<polygon points="170 480 170 500 187 510 204 500 204 480 187 470" fill="#333"/>
<polygon points="204 480 204 500 221 510 238 500 238 480 221 470" fill="#000"/>
<polygon points="238 480 238 500 255 510 272 500 272 480 255 470" fill="#333"/>
<polygon points="272 480 272 500 289 510 306 500 306 480 289 470" fill="#111"/>
<polygon points="306 480 306 500 323 510 340 500 340 480 323 470" fill="#333"/>
<polygon points="340 480 340 500 357 510 374 500 374 480 357 470" fill="#222"/>
<polygon points="374 480 374 500 391 510 408 500 408 480 391 470" fill="#000"/>
<polygon points="408 480 408 500 425 510 442 500 442 480 425 470" fill="#111"/>
<polygon points="442 480 442 500 459 510 476 500 476 480 459 470" fill="#000"/>
<polygon points="476 480 476 500 493 510 510 500 510 480 493 470" fill="#222"/>
<polygon points="510 480 510 500 527 510 544 500 544 480 527 470" fill="#000"/>
<polygon points="544 480 544 500 561 510 578 500 578 480 561 470" fill="#333"/>
<polygon points="578 480 578 500 595 510 612 500 612 480 595 470" fill="#333"/>
<polygon points="612 480 612 500 629 510 646 500 646 480 629 470" fill="#333"/>
<polygon points="646 480 646 500 663 510 680 500 680 480 663 470" fill="#222"/>
<polygon points="680 480 680 500 697 510 714 500 714 480 697 470" fill="#333"/>
<polygon points="714 480 714 500 731 510 748 500 748 480 731 470" fill="#111"/>
<polygon points="748 480 748 500 765 510 782 500 782 480 765 470" fill="#111"/>
<polygon points="782 480 782 500 799 510 816 500 816 480 799 470" fill="#333"/>
<polygon points="816 480 816 500 833 510 850 500 850 480 833 470" fill="#000"/>
<polygon points="850 480 850 500 867 510 884 500 884 480 867 470" fill="#333"/>
<polygon points="884 480 884 500 901 510 918 500 918 480 901 470" fill="#111"/>
<polygon points="918 480 918 500 935 510 952 500 952 480 935 470" fill="#000"/>
<polygon points="952 480 952 500 969 510 986 500 986 480 969 470" fill="#222"/>
<polygon points="986 480 986 500 1003 510 1020 500 1020 480 1003 470" fill="#111"/>
<polygon points="1020 480 1020 500 1037 510 1054 500 1054 480 1037 470" fill="#000"/>
<polygon points="1054 480 1054 500 1071 510 1088 500 1088 480 1071 470" fill="#222"/>

<polygon points="-17 510 -17 530 0 540 17 530 17 510 0 500" fill="#000"/>
<polygon points="17 510 17 530 34 540 51 530 51 510 34 500" fill="#111"/>
<polygon points="51 510 51 530 68 540 85 530 85 510 68 500" fill="#222"/>
<polygon points="85 510 85 530 102 540 119 530 119 510 102 500" fill="#333"/>
<polygon points="119 510 119 530 136 540 153 530 153 510 136 500" fill="#222"/>
<polygon points="153 510 153 530 170 540 187 530 187 510 170 500" fill="#333"/>
<polygon points="187 510 187 530 204 540 221 530 221 510 204 500" fill="#222"/>
<polygon points="221 510 221 530 238 540 255 530 255 510 238 500" fill="#333"/>
<polygon points="255 510 255 530 272 540 289 530 289 510 272 500" fill="#000"/>
<polygon points="289 510 289 530 306 540 323 530 323 510 306 500" fill="#333"/>
<polygon points="323 510 323 530 340 540 357 530 357 510 340 500" fill="#222"/>
<polygon points="357 510 357 530 374 540 391 530 391 510 374 500" fill="#111"/>
<polygon points="391 510 391 530 408 540 425 530 425 510 408 500" fill="#222"/>
<polygon points="425 510 425 530 442 540 459 530 459 510 442 500" fill="#222"/>
<polygon points="459 510 459 530 476 540 493 530 493 510 476 500" fill="#333"/>
<polygon points="493 510 493 530 510 540 527 530 527 510 510 500" fill="#000"/>
<polygon points="527 510 527 530 544 540 561 530 561 510 544 500" fill="#000"/>
<polygon points="561 510 561 530 578 540 595 530 595 510 578 500" fill="#222"/>
<polygon points="595 510 595 530 612 540 629 530 629 510 612 500" fill="#222"/>
<polygon points="629 510 629 530 646 540 663 530 663 510 646 500" fill="#111"/>
<polygon points="663 510 663 530 680 540 697 530 697 510 680 500" fill="#222"/>
<polygon points="697 510 697 530 714 540 731 530 731 510 714 500" fill="#333"/>
<polygon points="731 510 731 530 748 540 765 530 765 510 748 500" fill="#222"/>
<polygon points="765 510 765 530 782 540 799 530 799 510 782 500" fill="#222"/>
<polygon points="799 510 799 530 816 540 833 530 833 510 816 500" fill="#000"/>
<polygon points="833 510 833 530 850 540 867 530 867 510 850 500" fill="#333"/>
<polygon points="867 510 867 530 884 540 901 530 901 510 884 500" fill="#111"/>
<polygon points="901 510 901 530 918 540 935 530 935 510 918 500" fill="#111"/>
<polygon points="935 510 935 530 952 540 969 530 969 510 952 500" fill="#333"/>
<polygon points="969 510 969 530 986 540 1003 530 1003 510 986 500" fill="#333"/>
<polygon points="1003 510 1003 530 1020 540 1037 530 1037 510 1020 500" fill="#111"/>
<polygon points="1037 510 1037 530 1054 540 1071 530 1071 510 1054 500" fill="#111"/>
<polygon points="1071 510 1071 530 1088 540 1105 530 1105 510 1088 500" fill="#000"/>

<polygon points="0 540 0 560 17 570 34 560 34 540 17 530" fill="#222"/>
<polygon points="34 540 34 560 51 570 68 560 68 540 51 530" fill="#333"/>
<polygon points="68 540 68 560 85 570 102 560 102 540 85 530" fill="#000"/>
<polygon points="102 540 102 560 119 570 136 560 136 540 119 530" fill="#111"/>
<polygon points="136 540 136 560 153 570 170 560 170 540 153 530" fill="#000"/>
<polygon points="170 540 170 560 187 570 204 560 204 540 187 530" fill="#222"/>
<polygon points="204 540 204 560 221 570 238 560 238 540 221 530" fill="#000"/>
<polygon points="238 540 238 560 255 570 272 560 272 540 255 530" fill="#222"/>
<polygon points="272 540 272 560 289 570 306 560 306 540 289 530" fill="#333"/>
<polygon points="306 540 306 560 323 570 340 560 340 540 323 530" fill="#000"/>
<polygon points="340 540 340 560 357 570 374 560 374 540 357 530" fill="#222"/>
<polygon points="374 540 374 560 391 570 408 560 408 540 391 530" fill="#000"/>
<polygon points="408 540 408 560 425 570 442 560 442 540 425 530" fill="#222"/>
<polygon points="442 540 442 560 459 570 476 560 476 540 459 530" fill="#333"/>
<polygon points="476 540 476 560 493 570 510 560 510 540 493 530" fill="#333"/>
<polygon points="510 540 510 560 527 570 544 560 544 540 527 530" fill="#000"/>
<polygon points="544 540 544 560 561 570 578 560 578 540 561 530" fill="#222"/>
<polygon points="578 540 578 560 595 570 612 560 612 540 595 530" fill="#111"/>
<polygon points="612 540 612 560 629 570 646 560 646 540 629 530" fill="#000"/>
<polygon points="646 540 646 560 663 570 680 560 680 540 663 530" fill="#222"/>
<polygon points="680 540 680 560 697 570 714 560 714 540 697 530" fill="#222"/>
<polygon points="714 540 714 560 731 570 748 560 748 540 731 530" fill="#000"/>
<polygon points="748 540 748 560 765 570 782 560 782 540 765 530" fill="#333"/>
<polygon points="782 540 782 560 799 570 816 560 816 540 799 530" fill="#333"/>
<polygon points="816 540 816 560 833 570 850 560 850 540 833 530" fill="#111"/>
<polygon points="850 540 850 560 867 570 884 560 884 540 867 530" fill="#222"/>
<polygon points="884 540 884 560 901 570 918 560 918 540 901 530" fill="#333"/>
<polygon points="918 540 918 560 935 570 952 560 952 540 935 530" fill="#000"/>
<polygon points="952 540 952 560 969 570 986 560 986 540 969 530" fill="#333"/>
<polygon points="986 540 986 560 1003 570 1020 560 1020 540 1003 530" fill="#222"/>
<polygon points="1020 540 1020 560 1037 570 1054 560 1054 540 1037 530" fill="#222"/>
<polygon points="1054 540 1054 560 1071 570 1088 560 1088 540 1071 530" fill="#111"/>


    </g>
</svg>
